<svg xmlns="http://www.w3.org/2000/svg" width="1024" height="1024"><path fill-rule="evenodd" d="M497.072 190.112c-21.949 1.949-48.828 7.779-66.813 14.491-14.489 5.407-34.813 15.466-44.347 21.949-25.703 17.476-50.973 43.292-67.408 68.864-11.788 18.343-22.051 41.934-26.899 61.833-12.216 50.147-9.337 95.327 9.034 141.751 19.754 49.92 60.008 93.482 108.861 117.806 32.47 16.167 64.677 23.631 101.5 23.523 74.542-.218 140.245-32.321 183.203-89.514 24.445-32.546 39.519-72.376 43.778-115.671 2.912-29.603-1.27-63.967-11.54-94.82-3.659-10.991-16.146-36.132-23.256-46.824-7.703-11.584-24.857-32.14-33.91-40.636-10.76-10.099-24.51-20.815-37.499-29.226-32.124-20.802-60.029-29.621-106.276-33.588-13.308-1.142-14.91-1.138-28.428.062m-6.718 10.924c-22.779 2.17-54.337 11.005-74.543 20.869-19.771 9.652-40.382 24.577-57.373 41.545-11.514 11.499-19.135 21.141-28.93 36.602-18.045 28.484-28.377 56.517-32.598 88.448-1.222 9.237-1.667 44.077-.577 45.166 1.17 1.17 14.353-10.527 26.81-23.787 6.913-7.359 19.946-21.527 28.963-31.486 28.96-31.986 63.282-68.553 76.04-81.014 18.51-18.079 24.367-20.257 37.384-13.902 6.963 3.398 12.059 7.997 23.176 20.911 10.29 11.953 19.15 21.612 19.826 21.612.23 0-.059-1.238-.642-2.75-2.385-6.184-.783-29.658 2.78-40.75 5.848-18.203 14.941-28.179 33.846-37.135 13.04-6.177 22.557-8.434 35.984-8.534 13.436-.101 21.434 1.406 24.438 4.603 6.932 7.379-3.155 32.413-17.737 44.019-6.886 5.481-16.742 10.772-24.201 12.99-6.975 2.075-25.374 4.553-33.936 4.571-10.145.021-11.064.469-11.064 5.393 0 5.892 2.734 15.737 5.008 18.029 1.899 1.916 2.059 1.912 14.537-.287 23.763-4.189 35.793-3.865 52.431 1.413 18.633 5.911 30.916 17.36 66.986 62.438 28.538 35.666 42.065 49.839 56.674 59.38 10.868 7.098 14.111 8.2 12.865 4.37-1.006-3.092-.989-4.096.37-22.105 2.962-39.266-5.551-82.167-22.553-113.645-6.302-11.669-18.262-29.849-25.616-38.941-17.777-21.978-43.671-42.521-71.249-56.525-28.819-14.634-54.847-20.868-91.453-21.903-9.075-.256-20.616-.074-25.646.405M566 248.499c-12.615 2.544-21.313 6.882-29.829 14.876C530.75 268.464 519 288.579 519 292.769c0 .285 5.737.267 12.75-.04 21.666-.95 39.192-7.363 49.75-18.204 11.519-11.828 16.119-23.312 10.5-26.207-3.208-1.653-17.397-1.554-26 .181M445.322 295.25c-3.057 2.887-13.042 13.333-22.19 23.212a7672 7672 0 0 1-30.882 33.13c-7.837 8.342-14.25 15.387-14.25 15.656 0 1.503 25.742-6.574 61-19.14 6.325-2.255 13.331-4.101 15.569-4.104 5.668-.006 12.762 4.562 33.382 21.496 24.268 19.93 23.441 19.54 43.842 20.651 9.189.501 26.832 1.234 39.207 1.63l22.5.719v2.5c0 2.494-.031 2.502-12 3.114-6.6.338-25.675.676-42.389.75l-30.388.136-8.112-5.419c-4.461-2.98-16.886-11.976-27.611-19.992-13.477-10.073-20.311-14.577-22.124-14.582-3.262-.009-8.204 1.715-22.876 7.98-6.325 2.701-15.387 6.03-20.137 7.397-4.751 1.367-15.934 4.82-24.852 7.674-14.772 4.727-16.919 5.719-24.144 11.163-5.055 3.809-12.21 10.925-19.736 19.627-14.381 16.63-24.896 26.583-34.527 32.684l-7.275 4.609 2.345 10.679c6.464 29.435 16.86 53.963 33.205 78.349 11.258 16.796 22.537 29.606 37.16 42.206 22.333 19.242 45.756 32.704 71.961 41.36 28.499 9.413 44.4 11.738 75.244 11.005 22.556-.537 30.377-1.573 51.756-6.859 47.962-11.858 93.168-43.603 120.876-84.881 12.801-19.07 23.911-42.828 29.215-62.472 2.031-7.522 2.054-8.03.411-9-13.367-7.891-24.197-16.218-35.807-27.532-7.257-7.072-14.668-14.802-16.468-17.177s-7.176-9.494-11.947-15.819c-26.603-35.269-47.408-56.7-62.14-64.009-18.216-9.038-43.781-9.691-70.879-1.811l-7.24 2.105-6.742-3.319c-6.882-3.388-14.369-10.296-36.642-33.805-8.431-8.899-16.441-15.161-19.393-15.161-.75 0-3.865 2.363-6.922 5.25M406.25 415.684c-1.788.243-3.25.687-3.25.985s1.125 1.879 2.5 3.513l2.5 2.971-.022 47.674c-.022 45.774-.1 47.773-1.978 50.173-3.789 4.844-3.312 5.001 15.25 4.993 33.733-.014 47.197-4.368 54.048-17.48 3.293-6.302 3.013-17.313-.629-24.758-3.218-6.576-9.248-12.029-16.238-14.682l-4.676-1.776 4.846-2.346c6.477-3.135 12.65-9.481 14.169-14.567 4.015-13.435-1.102-26.453-12.62-32.109-5.637-2.769-5.7-2.775-28.15-2.905-12.375-.071-23.962.07-25.75.314m91 .061c-5.087.182-9.236.651-9.219 1.043s1.14 2.512 2.495 4.712l2.464 4-.002 46.5c-.001 44.723-.077 46.615-1.988 49.5-1.093 1.65-1.99 3.337-1.993 3.75s5.168.75 11.493.75c6.363 0 11.5-.412 11.5-.923 0-.508-1.125-2.261-2.5-3.895l-2.5-2.971V473h45l-.008 23.75c-.008 26.959-.842 34.086-5.051 43.143-14.088 30.324-44.645 42.86-79.445 32.594-1.518-.448-2.462.185-3.898 2.616-1.766 2.99-1.781 3.29-.211 4.438 3.289 2.405 18.359 5.459 26.827 5.437 14.808-.038 33.253-5.535 45.211-13.472 12.927-8.58 23.044-23.538 27.735-41.006 1.909-7.106 2.16-10.767 2.244-32.747l.096-24.747 14.027-.003c15.852-.003 16.995.394 19.94 6.924 1.01 2.24 2.218 4.073 2.685 4.073.466 0 .848-5.85.848-13s-.283-13-.629-13-2.372 1.575-4.503 3.5l-3.874 3.5h-27.915l-.29-20.501-.289-20.501 19.173.001 19.174.001 3.191 2.686c1.756 1.477 4.025 4.627 5.042 7 3.083 7.192 4.014 5.448 3.703-6.936l-.283-11.25h-33.667c-18.517 0-33.94.273-34.274.607-.333.333.524 2.583 1.906 5 2.441 4.27 2.511 4.93 2.523 23.643L552 464h-45v-19.86c0-19.571.037-19.915 2.517-23.569 2.767-4.078 2.52-5.68-.826-5.363-1.205.114-6.354.356-11.441.537M422 444.629v21.629l10.116-.718c15.868-1.125 22.991-3.979 26.404-10.579 2.148-4.153 1.919-16.409-.401-21.461-3.784-8.241-8.904-10.394-24.869-10.456L422 423zm0 48.716c0 26.226-.551 25.19 13.358 25.088 19.861-.145 28.468-7.655 27.424-23.927-1.06-16.516-10.029-22.354-34.532-22.475L422 472zM205.778 672.548c-.397.401.39 2.052 1.75 3.668l2.472 2.937-.004 33.174c-.003 31.389-.111 33.349-2 36.447-1.098 1.801-1.996 3.755-1.996 4.342 0 .738 7.344.954 23.75.698 22.382-.348 24.055-.506 29.044-2.734 9.847-4.398 15.31-14.229 13.737-24.721-.91-6.072-6.804-12.575-13.741-15.163l-5.019-1.872 4.677-2.741c2.573-1.507 5.547-4.168 6.611-5.912 2.289-3.753 2.565-11.241.59-15.969-1.75-4.187-7.582-9.273-12.372-10.787-4.213-1.333-46.333-2.545-47.499-1.367m117.675 3.661c-.035 3.224-2.419 9.515-9.584 25.291-5.245 11.55-11.706 26.625-14.357 33.5-3.274 8.488-5.734 13.326-7.666 15.073-1.565 1.415-2.846 2.877-2.846 3.25 0 .372 4.275.677 9.5.677s9.5-.308 9.5-.686c0-.377-.967-1.714-2.148-2.972l-2.148-2.286 3.856-10.528L311.417 727h31.248l3.589 8.264c5.016 11.549 5.274 12.948 2.803 15.185-1.132 1.023-2.057 2.241-2.057 2.706s6.075.845 13.5.845 13.5-.305 13.5-.677-1.296-1.835-2.881-3.25c-1.871-1.672-4.99-7.478-8.902-16.573-7.082-16.467-23.879-54.904-25.564-58.5-1.031-2.2-1.89-2.535-7.162-2.791l-5.991-.291zm88.456-2.313c-10.536 3.371-19.11 10.968-23.766 21.058-3.674 7.962-4.236 22.15-1.258 31.741 3.903 12.573 12.639 21.26 25.615 25.473 10.093 3.277 29.495 3.142 41-.285l8-2.383.279-14.475c.271-14.094.348-14.548 2.909-17.221 2.359-2.462 2.449-2.814.881-3.416-1.863-.715-20.413.122-21.249.959-.273.273.46 1.789 1.628 3.369 1.91 2.583 2.095 3.971 1.838 13.775l-.286 10.902-3.5 2.053c-4.976 2.92-17.646 2.876-24.089-.084-9.735-4.47-15.88-13.776-17.955-27.19-2.668-17.242 3.55-30.852 16.885-36.957 4.695-2.149 6.417-2.399 14.006-2.034 10.798.52 18.001 3.93 22.496 10.649 3.966 5.928 4.981 4.409 3.973-5.946l-.816-8.384-4.556-.212c-2.506-.117-7.213-.904-10.46-1.75-8.187-2.133-24.364-1.949-31.575.358m81.091-.861c0 .57.652 2.032 1.449 3.25 1.184 1.811 1.479 8.451 1.617 36.406.165 33.166.107 34.294-1.935 37.597-1.157 1.873-1.81 3.699-1.451 4.059.359.359 5.753.653 11.987.653 12.256 0 12.952-.373 9.333-5-1.759-2.249-1.957-4.158-1.971-19l-.016-16.5h43.19l.483 14.665c.438 13.308.29 15.1-1.601 19.377-1.147 2.592-2.085 5.105-2.085 5.585 0 .982 22.319 1.221 23.29.25.343-.343-.482-2.073-1.833-3.845L571 747.311V713.29c0-32.506.089-34.133 2-36.563 3.483-4.428 2.844-4.727-10.083-4.727-6.646 0-11.91.337-11.698.75 3.26 6.332 3.685 8.64 3.841 20.842l.166 12.908h-43.22l-.003-13.615c-.003-12.104.219-13.898 1.997-16.158 3.464-4.404 2.815-4.727-9.5-4.727-7.261 0-11.5.382-11.5 1.035m137.589 1.668c.614 3.08.026 4.618-9.864 25.797-3.596 7.7-9.526 21.425-13.177 30.5-4.967 12.342-7.412 17.172-9.705 19.166-1.686 1.466-2.788 3.114-2.449 3.662.62 1.004 18.401.71 19.432-.321.291-.291-.451-1.441-1.649-2.557-2.9-2.702-2.787-3.889 1.398-14.7l3.58-9.25h31.571l3.652 8.75c4.012 9.612 4.346 11.911 2.154 14.809-.808 1.067-1.483 2.278-1.5 2.691-.018.413 6.043.75 13.468.75s13.5-.305 13.5-.677-1.362-1.835-3.027-3.25c-2.86-2.432-7.785-13.102-32.801-71.073l-2.805-6.5-6.168-.297-6.168-.298zm166.131-2.09c-.337.337.376 1.949 1.584 3.582 2.144 2.899 2.203 3.765 2.485 36.489.278 32.272.212 33.649-1.762 36.995-1.128 1.911-1.84 3.815-1.582 4.231.568.919 21.164 1.45 22.569.581.597-.369-.009-2.332-1.508-4.891L816 745.324l.004-32.412c.003-30.628.113-32.592 2-35.686 1.098-1.801 1.996-3.713 1.996-4.25 0-1.059-22.237-1.406-23.28-.363M702 674.128c0 .785.9 2.198 2 3.14 1.927 1.65 2 2.946 1.993 35.472-.006 32.006-.109 33.916-1.993 36.76-1.093 1.65-1.99 3.337-1.993 3.75S707.4 754 714 754c12.766 0 13.796-.459 10.026-4.472-2.353-2.505-2.387-2.781-2.184-17.778L722 720l5.25.031 5.25.032 8.971 13.486c4.933 7.417 10.463 14.933 12.287 16.701 3.025 2.932 3.974 3.248 10.774 3.591 10.662.539 11.055.152 5.606-5.517-3.522-3.663-19.078-25.536-20.916-29.408-.154-.323 1.484-1.381 3.638-2.353 4.482-2.021 8.997-5.888 11.713-10.034 2.744-4.187 2.549-15.599-.361-21.195-4.925-9.468-10.984-11.296-39.962-12.053-18.883-.493-22.25-.365-22.25.847m-477 19.494v14.623l8.75-.44c5.393-.272 9.945-1.069 11.865-2.079 8.592-4.518 8.419-21.725-.255-25.349-1.925-.804-6.845-1.377-11.828-1.377H225zm497-13.324c-.275.291-.275 7.88 0 16.865l.5 16.337 8.025-.207c4.413-.114 9.647-.885 11.63-1.713 7.078-2.958 10.819-10.193 9.493-18.362-1.359-8.371-7.193-12.067-20.356-12.896-4.836-.304-9.017-.315-9.292-.024m-400.8 23.134c-3.41 7.914-6.2 14.766-6.2 15.228s5.625.84 12.5.84 12.5-.298 12.5-.661c0-.544-4.411-11.005-11.412-27.067-1.141-2.619-1.436-2.153-7.388 11.66m311.961-12.404c-.527 1.36-3.479 8.297-6.56 15.416S621 719.526 621 719.694s5.88.306 13.067.306c12.285 0 13.032-.111 12.477-1.86-.324-1.023-3.253-8.098-6.508-15.722-5.307-12.433-6.016-13.606-6.875-11.39M225 729.965c0 17.664-.442 17.035 11.966 17.035 12.822 0 17.286-2.784 19.006-11.854 1.369-7.219-1.076-14.665-5.87-17.872-3.013-2.017-4.626-2.274-14.25-2.274H225zm171.428 59.785c-.019 2.586-2.843 9.802-9.1 23.25-4.991 10.725-11.666 26.025-14.834 34-4.535 11.415-6.505 15.162-9.259 17.61-2.133 1.897-3.075 3.371-2.414 3.779 1.548.957 19.101.547 19.723-.461.286-.462-.62-1.587-2.012-2.499-1.393-.912-2.544-2.395-2.559-3.294s1.672-6.015 3.75-11.368l3.777-9.732 16.068-.018 16.068-.017 3.147 7.75c4.599 11.323 4.836 12.922 2.399 16.217-1.141 1.544-1.799 3.083-1.462 3.42.933.933 26.088.732 26.672-.213.281-.454-.934-2.188-2.7-3.854-2.471-2.331-6.856-11.44-19.051-39.574-8.713-20.101-16.336-37.041-16.941-37.646s-3.383-1.1-6.173-1.1h-5.072zm293.29-2.722c-16.101 4.062-22.871 18.505-14.815 31.606 2.974 4.838 7.977 8.096 20.39 13.28 12.86 5.37 15.214 6.792 17.844 10.781 2.464 3.737 2.342 7.305-.387 11.315-3.664 5.383-7.073 7.313-13.771 7.798-10.679.772-18.791-4.068-21.352-12.743-.679-2.299-1.66-4.267-2.181-4.373-1.028-.209-2.219 7.068-2.358 14.412l-.088 4.605 7.75 2.395c10.865 3.359 25.542 3.397 32.75.086 6.79-3.12 10.121-6.561 12.497-12.912 3.742-10.002 1.709-18.136-6.122-24.488-4.915-3.987-8.841-6.083-20.261-10.819-9.852-4.086-14.614-8.052-14.614-12.17 0-7.008 5.959-11.805 14.651-11.795 9.266.01 15.157 2.967 18.995 9.533.846 1.447 1.451 1.671 2.305.856.822-.783.925-3.256.354-8.5l-.805-7.395-5.5-.714c-10.596-1.376-21.534-1.704-25.282-.758M298 788.845c0 .465.9 1.66 2 2.655 1.926 1.743 2 3.08 2 36.02 0 32.696-.089 34.323-2 36.753-3.48 4.424-2.84 4.727 10 4.727 7.135 0 12-.396 12-.976 0-.537-.898-2.449-1.996-4.25-1.748-2.867-1.997-5.047-2-17.524L318 832h9.923c9.289 0 10.126.17 13.09 2.664 2.588 2.178 3.329 2.406 4.061 1.25.932-1.471 1.31-15.914.417-15.914-.279 0-2.372 1.35-4.65 3-3.898 2.824-4.689 3-13.491 3H318v-31l11.75.002c13.618.001 17.831 1.41 20.18 6.748 2.77 6.292 4.645 2.448 3.595-7.366l-.684-6.384H325.42c-15.081 0-27.42.38-27.42.845m165-.239c0 .333 1.125 1.942 2.5 3.576l2.5 2.971v65.694l-2.572 3.056c-1.414 1.681-2.264 3.554-1.888 4.162.767 1.241 23.326.958 24.106-.303.252-.406-.691-1.976-2.094-3.49-2.469-2.662-2.552-3.182-2.552-16.012V835l5.75.079 5.75.078 7.5 11.484c9.38 14.364 13.489 19.247 17.657 20.989 3.337 1.394 15.469 1.911 16.67.71.362-.363-1.109-2.174-3.271-4.024s-8.122-9.534-13.244-17.073C508.975 831.289 509.364 832 511.466 832c4.179 0 12.486-6.153 15.123-11.2 2.208-4.225 1.824-15.315-.71-20.55-4.733-9.777-13.229-12.25-42.089-12.25-11.435 0-20.79.273-20.79.606m91-.01c0 .327 1.013 2.015 2.25 3.75 2.225 3.119 2.25 3.527 2.25 36.323 0 33.021-.01 33.18-2.25 35.564-3.968 4.225-3.087 4.767 7.75 4.767 10.979 0 12.057-.719 7.5-5l-2.5-2.349.005-28.575.006-28.576 13.803 28.841c7.593 15.863 14.218 28.853 14.724 28.867s7.63-13.19 15.832-29.342c8.202-16.151 15.075-29.553 15.272-29.783.197-.229.358 12.674.358 28.674v29.09l-2.624 3.119c-1.444 1.715-2.456 3.263-2.25 3.44 1.073.921 22.913 1.34 23.463.45.341-.552-.439-2.132-1.734-3.51l-2.355-2.506v-33.17c0-32.666.034-33.217 2.22-36.283 1.222-1.712 1.934-3.399 1.584-3.75-.904-.904-26.311-.795-26.269.113.02.413.628 1.819 1.353 3.125 1.207 2.179.438 4.268-9.286 25.206-5.831 12.556-10.882 22.85-11.224 22.875-.341.024-2.709-4.634-5.262-10.352-5.529-12.389-17.829-38.586-18.945-40.354-.556-.881-4.165-1.25-12.23-1.25-6.293 0-11.441.268-11.441.596m-71 22.725v16.588l3.404.639c4.025.755 15.37-.849 19.273-2.726 7.9-3.8 10.773-17.167 5.208-24.241-3.478-4.422-7.575-5.862-18.135-6.375l-9.75-.473zm-89.818 7.311c-3.439 8.047-6.072 14.811-5.853 15.031.22.219 6.016.272 12.88.118l12.481-.281-6.095-14.731c-3.352-8.101-6.335-14.739-6.629-14.75s-3.346 6.565-6.784 14.613"/></svg>